<svg id="svg" version="1.1" xmlns="http://www.w3.org/2000/svg" style="display: block;" viewBox="0 0 2752 1536"><path d="M0 0 C1.42291351 0.00303635 1.42291351 0.00303635 2.87457275 0.00613403 C3.86797668 0.00438171 4.86138062 0.00262939 5.8848877 0.00082397 C9.18615437 -0.00359654 12.48736798 -0.00065585 15.78863525 0.00271606 C18.07167572 0.00204308 20.35471612 0.00107311 22.63775635 -0.00018311 C27.42959269 -0.00166035 32.22141044 0.00049533 37.01324463 0.00515747 C43.1708016 0.01085477 49.32831499 0.0075759 55.48587036 0.00158501 C60.20229422 -0.00201989 64.91870767 -0.00088235 69.63513184 0.0017128 C71.90625005 0.00238227 74.1773692 0.00155296 76.44848633 -0.00076675 C79.61658247 -0.00329211 82.78460698 0.00054567 85.95269775 0.00613403 C86.90130676 0.0041098 87.84991577 0.00208557 88.82727051 0 C95.29937302 0.02126633 95.29937302 0.02126633 96.41363525 1.13552856 C96.51535828 2.99947912 96.54579721 4.86733214 96.54950714 6.73405266 C96.55436489 7.95744846 96.55922263 9.18084427 96.56422758 10.44131267 C96.56461293 11.81658798 96.56490865 13.19186332 96.56512451 14.56713867 C96.56897096 16.0146411 96.57325778 17.46214241 96.57795 18.90964234 C96.58963699 22.9068577 96.59508532 26.90406163 96.59958482 30.90129066 C96.60551666 35.20570713 96.61718942 39.51010827 96.6282196 43.81451416 C96.6466054 51.28296379 96.66143742 58.75141374 96.67399597 66.21987534 C96.69227794 77.03882942 96.71694606 87.85776178 96.74336988 98.6766987 C96.78621774 116.25525341 96.82530967 133.83381418 96.86138916 151.41238403 C96.86355196 152.46551226 96.86571477 153.51864049 96.86794311 154.6036817 C96.8810706 161.00523054 96.89411137 167.40677955 96.90712452 173.80832863 C96.92657801 183.37621716 96.94612948 192.94410549 96.96588135 202.51199341 C96.96804022 203.55838446 96.97019909 204.60477551 96.97242337 205.68287538 C97.00862501 223.17220901 97.04859576 240.66153215 97.09118414 258.15085137 C97.11724999 268.93064831 97.13993103 279.71044217 97.15816772 290.49025525 C97.17090721 297.8943858 97.18705968 305.29850395 97.20581686 312.70262168 C97.21649595 316.96614373 97.22564572 321.22965398 97.23051262 325.49318695 C97.18823018 357.73704599 97.18823018 357.73704599 100.60113525 389.76052856 C100.71067535 390.43974365 100.82021545 391.11895874 100.93307495 391.8187561 C105.60283692 420.60343787 112.88121639 449.60331668 127.41363525 475.13552856 C127.93691406 476.06679565 127.93691406 476.06679565 128.47076416 477.01687622 C136.94405886 491.97355402 147.02766439 505.29104067 158.41363525 518.13552856 C159.20898682 519.04302856 160.00433838 519.95052856 160.8237915 520.88552856 C168.51265619 529.56431762 176.51025853 537.64255766 185.59332275 544.86599731 C187.46391769 546.37128216 189.30360045 547.91586036 191.10894775 549.49880981 C204.32442769 561.03934731 219.52340686 569.8131717 235.41363525 577.13552856 C236.07460205 577.44329224 236.73556885 577.75105591 237.41656494 578.06814575 C245.82087667 581.95549535 254.28178737 585.27135536 263.1050415 588.08084106 C265.70222096 588.90874951 268.23613559 589.81007763 270.78863525 590.76052856 C295.18457314 598.78670144 322.47980947 597.44369545 347.80826342 597.4522028 C352.43167791 597.45594026 357.05505779 597.47111653 361.67845154 597.4848175 C369.66497232 597.50695939 377.65148057 597.52205073 385.63802528 597.5321846 C397.18484849 597.54684644 408.73162799 597.57240366 420.27842536 597.60051589 C439.017901 597.64584846 457.75738299 597.68251883 476.49688721 597.71365356 C494.6873282 597.74389481 512.87775373 597.77827045 531.06817627 597.81814575 C532.1917434 597.8206073 533.31531054 597.82306885 534.47292516 597.82560499 C540.11022092 597.83798067 545.7475165 597.850437 551.384812 597.8629334 C598.06106482 597.96629826 644.73733686 598.05556802 691.41363525 598.13552856 C691.41325823 598.96083824 691.4128812 599.78614792 691.41249275 600.63646698 C691.40535525 620.77917312 691.43145734 640.92160158 691.49391365 661.06421661 C691.52332821 670.80532903 691.54176277 680.54622455 691.53375244 690.28738403 C691.52679378 698.78430917 691.5410443 707.28089818 691.58007133 715.77774096 C691.59998693 720.27096415 691.60975172 724.76366061 691.59405899 729.25691223 C691.57957972 733.4991071 691.59377563 737.74030287 691.62858772 741.98237038 C691.63645943 743.52691185 691.63446324 745.07154572 691.62102699 746.61604881 C691.50801014 760.82648171 694.63917182 774.29862345 704.41363525 785.13552856 C705.00918213 785.88189575 705.604729 786.62826294 706.21832275 787.39724731 C714.42642792 797.36894134 725.72465627 802.98296401 738.41363525 805.13552856 C740.45996784 805.23353145 742.50899154 805.28141635 744.55763245 805.29374695 C745.79297226 805.30353577 747.02831207 805.31332458 748.30108643 805.32341003 C749.66192588 805.32931339 751.02276575 805.33512389 752.38360596 805.34085083 C753.82275164 805.35043545 755.26189455 805.36044588 756.70103455 805.37084961 C760.60142269 805.39784146 764.50182287 805.41888192 768.40225244 805.43885159 C772.48087257 805.4607465 776.55945587 805.48811802 780.63804626 805.51490784 C788.35854045 805.56478737 796.07905513 805.60974376 803.79958934 805.6529302 C812.59037249 805.70234311 821.38111868 805.75724619 830.17186606 805.81260979 C848.25242145 805.92635708 866.33301175 806.03321187 884.41363525 806.13552856 C884.50732814 824.03431581 884.57773617 841.93303888 884.62088394 859.83201885 C884.64145612 868.14396581 884.66947365 876.45575987 884.71539307 884.76760864 C884.75542543 892.01733933 884.78110685 899.2669592 884.78998923 906.51679736 C884.79517643 910.35093943 884.80725466 914.18476465 884.83655548 918.01880455 C884.86398489 921.63776209 884.87202569 925.25627644 884.86606598 928.87532806 C884.86766749 930.81592506 884.88904474 932.75647533 884.91131592 934.69694519 C884.85866293 946.06738747 882.05151175 956.40733619 876.35113525 966.26052856 C875.9661084 966.93011597 875.58108154 967.59970337 875.18438721 968.2895813 C867.41228382 981.22758305 855.57390402 990.70467334 840.862854 994.53005981 C840.05461182 994.7298645 839.24636963 994.92966919 838.41363525 995.13552856 C837.43232352 995.47236192 836.45101179 995.80919527 835.43996334 996.15623569 C830.5191334 997.5568162 825.62514362 997.4218643 820.54316711 997.40968323 C819.45816671 997.41491991 818.37316631 997.42015658 817.25528711 997.42555195 C813.62452001 997.44053716 809.99389403 997.4412568 806.36309814 997.44192505 C803.75751508 997.44954772 801.15193427 997.4579754 798.5463562 997.46714783 C791.4694764 997.48995696 784.39262666 997.49791459 777.31571507 997.50297427 C772.8904439 997.5062372 768.46518136 997.51276342 764.03991508 997.51997566 C751.77003924 997.53953922 739.50017141 997.55594388 727.23027897 997.5588522 C726.44569761 997.55903977 725.66111624 997.55922734 724.85275969 997.55942059 C723.26243238 997.55978682 721.67210507 997.56015052 720.08177776 997.5605117 C718.89772813 997.56078592 718.89772813 997.56078592 717.6897583 997.56106567 C716.5042503 997.5613365 716.5042503 997.5613365 715.29479264 997.56161279 C702.50548181 997.56514994 689.71633983 997.59214459 676.92708749 997.62956356 C663.77343529 997.66773818 650.61986664 997.68701036 637.46615785 997.68731171 C630.09024435 997.68789436 622.71453211 997.69626084 615.33867073 997.72530937 C608.39382057 997.75253581 601.44937334 997.75365053 594.5044899 997.73765373 C591.96496779 997.73584534 589.42542245 997.74247433 586.88595009 997.75847244 C564.12676885 997.89302968 546.44786279 994.61677292 528.96051025 978.83474731 C527.41363525 977.13552856 527.41363525 977.13552856 527.41363525 975.13552856 C526.75363525 975.13552856 526.09363525 975.13552856 525.41363525 975.13552856 C516.38198199 963.40232506 512.08063222 948.25081525 512.16207886 933.63249207 C512.15762365 932.26180869 512.15762365 932.26180869 512.15307844 930.86343473 C512.145485 927.82394053 512.15191344 924.78464224 512.15826416 921.74514771 C512.15551195 919.55630361 512.15183066 917.36746051 512.14729309 915.17861938 C512.13919737 910.47408256 512.13700862 905.76959323 512.13924026 901.06505013 C512.14208189 893.61165133 512.12768802 886.15834668 512.11026001 878.70497131 C512.08708331 868.24164256 512.06796011 857.77831887 512.05523682 847.31497192 C512.05442645 846.6518947 512.05361608 845.98881748 512.05278115 845.30564701 C512.04158024 835.913925 512.03628274 826.52220891 512.03339402 817.13048112 C512.02957023 804.75210041 512.01278074 792.37383712 511.97768152 779.99550337 C511.95756946 772.60176827 511.95504752 765.20831018 511.96596169 757.8145591 C511.96858733 753.19202341 511.95447448 748.56964562 511.93588066 743.94715118 C511.93060289 741.82129686 511.93197873 739.69541263 511.94091606 737.56957054 C512.20819163 713.51309551 512.20819163 713.51309551 502.4487915 692.17849731 C492.29349429 681.98421623 480.48438039 678.63523907 466.40196228 678.60771179 C464.87801903 678.61720605 463.35407799 678.62705983 461.83013916 678.63723755 C460.19233203 678.63340572 458.55452828 678.62777936 456.91673279 678.62051392 C453.40883346 678.60862714 449.90123384 678.60900412 446.39332962 678.6191082 C440.81400289 678.6348176 435.23497641 678.62088278 429.65567017 678.60307312 C418.78772331 678.57233408 407.91986981 678.57074483 397.05188751 678.57272339 C383.28550996 678.57411762 369.51920692 678.56324171 355.75288141 678.52414566 C351.13094862 678.51183364 346.50919943 678.50583753 341.88725662 678.51565361 C321.18176591 678.55901736 300.89015516 678.02964598 280.31785202 675.48941231 C277.62155282 675.16086367 274.92410476 674.87649024 272.22189331 674.6018219 C268.41363525 674.13552856 268.41363525 674.13552856 266.41363525 673.13552856 C264.52874794 672.85989825 262.64317083 672.58830761 260.75469971 672.33840942 C200.4954736 664.11818183 147.11786363 629.04913169 105.0269165 586.77224731 C104.29170776 586.03534668 103.55649902 585.29844604 102.79901123 584.53921509 C101.00302042 582.73884559 99.20791703 580.93760105 97.41363525 579.13552856 C97.41292311 579.73524673 97.41221097 580.33496489 97.41147724 580.95285633 C97.33395044 646.21077734 97.25519451 711.46869682 97.16996765 776.72660828 C97.16806013 778.18759415 97.16806013 778.18759415 97.16611407 779.6780949 C97.13847309 800.84286756 97.11061012 822.00763993 97.08251831 843.172412 C97.06874449 853.55082385 97.05501975 863.92923576 97.0413208 874.30764771 C97.03927468 875.85685602 97.03927468 875.85685602 97.03718721 877.43736147 C96.99295468 910.94511897 96.95196638 944.45287949 96.91265113 977.96064309 C96.87225017 1012.37918673 96.82859492 1046.79772472 96.78081414 1081.21625894 C96.77407507 1086.07180078 96.7673734 1090.92734267 96.7606945 1095.7828846 C96.75937878 1096.73857416 96.75806305 1097.69426372 96.75670745 1098.67891356 C96.73557954 1114.09534678 96.71790702 1129.51178213 96.70150994 1144.92822103 C96.68497314 1160.40727086 96.66483592 1175.88631263 96.64096684 1191.36535292 C96.62687715 1200.57444081 96.6156046 1209.78352239 96.60827088 1218.99261819 C96.60311027 1225.13242118 96.59437462 1231.27221214 96.58264752 1237.41200608 C96.57605594 1240.91796145 96.57109866 1244.42389942 96.57047326 1247.92986136 C96.56897986 1251.69355791 96.56146044 1255.45719317 96.55230045 1259.22087765 C96.55383446 1260.87984118 96.55383446 1260.87984118 96.55539945 1262.57231912 C96.55171874 1263.5650577 96.54803803 1264.55779628 96.54424578 1265.58061785 C96.54315392 1266.44272276 96.54206205 1267.30482767 96.5409371 1268.19305697 C96.41363525 1270.13552856 96.41363525 1270.13552856 95.41363525 1271.13552856 C93.49001898 1271.23213808 91.56280459 1271.25740024 89.63676453 1271.25578308 C88.38168091 1271.25715775 87.12659729 1271.25853241 85.83348083 1271.25994873 C84.42977882 1271.25640912 83.02607704 1271.2527743 81.62237549 1271.24905396 C80.15426638 1271.24877209 78.68615712 1271.2489298 77.2180481 1271.24949646 C73.22028869 1271.24978446 69.22255902 1271.2438873 65.22480655 1271.2369225 C61.05142793 1271.23068941 56.87804869 1271.2300852 52.70466614 1271.22889709 C44.79630733 1271.22578365 36.88796228 1271.21757008 28.97960955 1271.20754761 C19.97855031 1271.19638689 10.97749043 1271.19087612 1.97642601 1271.18585217 C-16.54451206 1271.17538747 -35.0654373 1271.15778777 -53.58636475 1271.13552856 C-53.5887531 1269.97618962 -53.59114145 1268.81685068 -53.59360218 1267.62238026 C-53.65141368 1239.87653369 -53.72445357 1212.13075785 -53.81535103 1184.38499941 C-53.82661434 1180.94303747 -53.83775357 1177.50107514 -53.84881592 1174.05911255 C-53.85212144 1173.03159864 -53.85212144 1173.03159864 -53.85549375 1171.98332687 C-53.89051945 1161.00447753 -53.91557706 1150.0256282 -53.93671177 1139.04674432 C-53.95875506 1127.71584731 -53.99227228 1116.38503055 -54.03506631 1105.05418938 C-54.05865688 1098.71745889 -54.07760576 1092.38080428 -54.08397865 1086.04403114 C-54.11163945 1061.76574292 -54.33090462 1037.56563083 -55.97772217 1013.33547974 C-56.03897801 1012.43075822 -56.10023385 1011.52603669 -56.16334593 1010.59389937 C-57.87051973 986.05676172 -61.51326968 961.90210734 -66.14886475 937.76052856 C-66.29062134 937.01898529 -66.43237793 936.27744202 -66.57843018 935.51342773 C-72.56677607 904.49391753 -83.23838947 870.83655328 -103.58636475 846.13552856 C-104.31210693 845.25380981 -105.03784912 844.37209106 -105.7855835 843.46365356 C-114.14405092 833.79964455 -124.09919673 824.42640832 -134.58636475 817.13552856 C-135.24636475 817.13552856 -135.90636475 817.13552856 -136.58636475 817.13552856 C-136.24492432 817.58653931 -135.90348389 818.03755005 -135.55169678 818.50222778 C-106.97380227 856.50077495 -93.46246563 898.19200473 -93.39886475 945.63552856 C-93.39709732 946.64749298 -93.39709732 946.64749298 -93.39529419 947.67990112 C-93.39806894 961.68213357 -94.44840256 975.02465939 -97.21136475 988.76052856 C-97.34263763 989.41438538 -97.47391052 990.06824219 -97.60916138 990.74191284 C-99.9020979 1002.02823495 -103.01817023 1012.57043212 -107.58636475 1023.13552856 C-107.92538818 1023.94103149 -108.26441162 1024.74653442 -108.6137085 1025.57644653 C-119.24070638 1050.72798135 -133.00895286 1073.07604963 -151.58636475 1093.13552856 C-152.40959229 1094.02667358 -152.40959229 1094.02667358 -153.24945068 1094.93582153 C-164.94185327 1107.44389377 -178.41037511 1117.59154991 -192.58636475 1127.13552856 C-193.52738037 1127.78263794 -194.468396 1128.42974731 -195.43792725 1129.09646606 C-205.65049798 1135.71056274 -217.05625672 1140.28519175 -228.27386475 1144.88552856 C-229.38914551 1145.34515991 -230.50442627 1145.80479126 -231.65350342 1146.27835083 C-270.69821738 1162.05761855 -316.93497398 1166.41404689 -358.58636475 1160.13552856 C-359.55477295 1159.99598755 -360.52318115 1159.85644653 -361.52093506 1159.712677 C-414.32649517 1152.04341434 -466.00509187 1131.78016193 -505.527771 1094.98318481 C-507.64997967 1092.98987225 -507.64997967 1092.98987225 -510.58636475 1091.13552856 C-510.58636475 1090.47552856 -510.58636475 1089.81552856 -510.58636475 1089.13552856 C-511.24636475 1089.13552856 -511.90636475 1089.13552856 -512.58636475 1089.13552856 C-512.58636475 1088.47552856 -512.58636475 1087.81552856 -512.58636475 1087.13552856 C-513.24636475 1087.13552856 -513.90636475 1087.13552856 -514.58636475 1087.13552856 C-514.58636475 1086.47552856 -514.58636475 1085.81552856 -514.58636475 1085.13552856 C-515.24636475 1085.13552856 -515.90636475 1085.13552856 -516.58636475 1085.13552856 C-517.996521 1083.70193481 -517.996521 1083.70193481 -519.64886475 1081.69802856 C-522.24695614 1078.6285309 -524.93142608 1075.79029932 -527.83636475 1073.01052856 C-533.14667769 1067.75412742 -537.63384138 1061.96417606 -542.1449585 1056.02566528 C-543.57015518 1054.15678441 -545.01405772 1052.30372297 -546.46136475 1050.45193481 C-554.35540399 1040.25288361 -561.27051093 1029.51140267 -568.07073975 1018.56033325 C-569.32596633 1016.55213247 -570.60107824 1014.56161123 -571.89886475 1012.58084106 C-577.6539811 1003.64648704 -582.00561555 994.1068407 -586.47601318 984.48953247 C-587.86463761 981.5455754 -589.34176641 978.65191121 -590.83636475 975.76052856 C-593.82651594 969.81345008 -596.28278102 963.68890582 -598.67327881 957.48318481 C-599.6855704 954.88045862 -600.72564413 952.28963948 -601.76605225 949.69802856 C-617.70454016 909.61603232 -628.9867715 868.30871678 -636.87689209 825.94119263 C-637.30740765 823.63187518 -637.74363929 821.32360031 -638.19036865 819.0173645 C-643.92035504 789.37878995 -646.30021665 758.90772214 -648.33636475 728.82302856 C-648.39534943 727.95673828 -648.45433411 727.090448 -648.5151062 726.19790649 C-650.03888153 703.44047003 -650.79484131 680.69340691 -650.77386475 657.88552856 C-650.77359283 656.75499054 -650.77332092 655.62445251 -650.77304077 654.45965576 C-650.73186997 616.74160029 -649.21197674 579.03991276 -644.05047607 541.64651489 C-643.56868257 538.00176348 -643.16406275 534.35362064 -642.77386475 530.69802856 C-640.15535602 507.99715133 -636.01163866 485.55397268 -631.64886475 463.13552856 C-631.34154419 461.54227753 -631.34154419 461.54227753 -631.02801514 459.9168396 C-615.03445167 377.28502454 -585.19263355 293.9612657 -534.58636475 226.13552856 C-534.01676025 225.36837524 -533.44715576 224.60122192 -532.86029053 223.81082153 C-531.15235887 221.51679257 -529.43432709 219.23078461 -527.71136475 216.94802856 C-527.20033203 216.26530884 -526.68929932 215.58258911 -526.16278076 214.87918091 C-523.14144885 210.91897831 -519.9284847 207.38545742 -516.35906982 203.91433716 C-514.55303452 202.10208358 -512.88233383 200.22043137 -511.215271 198.28005981 C-500.24424633 185.58593353 -488.10325637 174.05785465 -474.58636475 164.13552856 C-473.59636475 163.37369263 -472.60636475 162.61185669 -471.58636475 161.82693481 C-468.61805993 159.54939242 -465.6159541 157.33082745 -462.58636475 155.13552856 C-461.00081787 153.98504028 -461.00081787 153.98504028 -459.38323975 152.81130981 C-444.96527924 142.64897979 -428.61596585 133.45302124 -411.746521 128.16287231 C-409.02888684 127.27938927 -406.43979736 126.28266493 -403.79730225 125.20193481 C-367.76495294 110.65112049 -324.35243562 108.49943156 -286.58636475 117.13552856 C-285.76490967 117.31744751 -284.94345459 117.49936646 -284.09710693 117.6867981 C-267.97988755 121.36594303 -253.57069439 128.38514303 -239.08636475 136.19802856 C-238.19078857 136.68021851 -237.2952124 137.16240845 -236.37249756 137.65921021 C-222.89468674 145.08501852 -210.73225988 154.55993507 -199.58636475 165.13552856 C-198.92926514 165.75862915 -198.27216553 166.38172974 -197.59515381 167.02371216 C-181.45403762 182.45536831 -168.80818086 198.2777755 -158.58636475 218.13552856 C-158.22172119 218.83065552 -157.85707764 219.52578247 -157.48138428 220.24197388 C-146.86222525 240.49961812 -139.34397044 261.56484367 -135.58636475 284.13552856 C-135.21938129 285.92885441 -134.84547593 287.7207931 -134.46136475 289.51052856 C-132.50690535 299.32315741 -132.30994567 309.2173652 -132.27386475 319.19802856 C-132.27124634 319.89540131 -132.26862793 320.59277405 -132.26593018 321.3112793 C-132.26052324 334.86744094 -133.75486541 347.86239757 -136.58636475 361.13552856 C-136.73057861 361.83806763 -136.87479248 362.54060669 -137.02337646 363.26443481 C-141.18116634 382.89928251 -149.62961717 401.81459186 -159.58636475 419.13552856 C-159.94085693 419.76024048 -160.29534912 420.38495239 -160.6605835 421.02859497 C-165.24763857 429.04935076 -170.52868448 436.17231877 -176.58636475 443.13552856 C-177.29534912 443.96697388 -178.0043335 444.79841919 -178.73480225 445.65505981 C-197.59987408 467.27838222 -221.26371403 482.24943232 -247.58636475 493.13552856 C-247.58636475 493.79552856 -247.58636475 494.45552856 -247.58636475 495.13552856 C-245.67988512 496.60659686 -243.80143651 497.91045452 -241.77386475 499.19802856 C-241.15511475 499.59215942 -240.53636475 499.98629028 -239.89886475 500.3923645 C-209.50385626 519.21756376 -170.29115254 529.69995879 -134.77386475 521.44802856 C-132.02098829 520.74757964 -129.30405919 519.96081134 -126.58636475 519.13552856 C-125.34628662 518.78490356 -124.1062085 518.43427856 -122.82855225 518.07302856 C-107.74228908 513.46066785 -93.28785218 506.49451931 -80.58636475 497.13552856 C-79.53191162 496.38787231 -78.4774585 495.64021606 -77.39105225 494.86990356 C-38.76567763 466.91559732 -18.69147544 418.11197006 -10.83636475 372.63552856 C-10.72059082 371.96682739 -10.60481689 371.29812622 -10.48553467 370.60916138 C-8.6648658 359.23932657 -8.43673264 347.78201004 -8.43487549 336.29159546 C-8.43101554 334.83740714 -8.42672631 333.38321991 -8.42205 331.92903399 C-8.4105217 327.969786 -8.40495276 324.01054945 -8.40041518 320.05128813 C-8.39442339 315.76787709 -8.38276703 311.48448094 -8.3717804 307.20108032 C-8.35349784 299.79173428 -8.33862625 292.38238784 -8.32600403 284.97303009 C-8.30766063 274.25943222 -8.28299922 263.5458558 -8.25663012 252.832275 C-8.2139156 235.44606173 -8.17477706 218.05984258 -8.13861084 200.6736145 C-8.13644804 199.63451316 -8.13428523 198.59541182 -8.13205689 197.52482256 C-8.11452346 189.08740538 -8.09716712 180.64998783 -8.07985401 172.21257019 C-8.06468308 164.81937647 -8.04945328 157.42618288 -8.03411865 150.0329895 C-8.03195978 148.99152186 -8.02980091 147.95005421 -8.02757663 146.87702695 C-7.99151631 129.53882153 -7.95157559 112.20062717 -7.90881586 94.86243701 C-7.88262863 84.16777756 -7.85997733 73.47312151 -7.84183228 62.77844533 C-7.82920118 55.46426514 -7.81308883 48.15009811 -7.79418314 40.83593145 C-7.78339013 36.61101082 -7.77428419 32.38610301 -7.76948738 28.16117096 C-7.76507883 24.30040258 -7.75616586 20.43967285 -7.74354416 16.57892284 C-7.73978502 15.17621094 -7.73774602 13.77349325 -7.73752397 12.37077633 C-7.73698873 10.47662512 -7.72982113 8.58247914 -7.72223663 6.68834305 C-7.72012066 5.63255279 -7.71800469 4.57676253 -7.7158246 3.48897862 C-7.44838686 -1.3727706 -4.0997566 0.01347116 0 0 Z " transform="translate(939.5863647460938,151.86447143554688)" style="fill: #095E7C;"/><path d="M0 0 C1.28189209 -0.01385742 2.56378418 -0.02771484 3.88452148 -0.04199219 C41.74147726 0.14214405 75.12842671 18.23790338 101.3125 44.375 C101.92077637 44.9635376 102.52905273 45.5520752 103.15576172 46.15844727 C123.7445843 66.22992104 135.61881771 93.89706408 142.3125 121.375 C142.58368652 122.48222412 142.58368652 122.48222412 142.86035156 123.61181641 C148.28674819 147.10282764 147.4022008 174.41639933 140.3125 197.375 C140.05549316 198.21015137 139.79848633 199.04530273 139.53369141 199.90576172 C133.84463997 217.76218897 125.38321344 233.09132243 113.3125 247.375 C112.86068359 247.94428223 112.40886719 248.51356445 111.94335938 249.10009766 C110.77627638 250.56066016 109.54882791 251.97256681 108.3125 253.375 C107.6525 253.375 106.9925 253.375 106.3125 253.375 C106.3125 254.035 106.3125 254.695 106.3125 255.375 C88.08422737 273.3000997 59.55524785 286.29392535 34.0625 286.625 C10.88360878 286.35042281 -7.60477554 272.88660498 -23.6875 257.375 C-24.92112167 256.06668639 -26.15108995 254.75490318 -27.375 253.4375 C-32.60969038 248.20280962 -38.27844683 246.170409 -45.625 245.8125 C-52.68875032 246.08245224 -58.32846508 248.31563002 -63.5703125 253.08984375 C-69.5704646 259.71320005 -70.24391104 266.01780316 -69.98828125 274.78515625 C-69.59758912 279.4480922 -68.73038745 281.89858288 -65.6875 285.375 C-64.72070312 286.52162109 -64.72070312 286.52162109 -63.734375 287.69140625 C-61.44431525 290.31376488 -59.08428001 292.85002917 -56.6875 295.375 C-55.98496094 296.13039063 -55.28242187 296.88578125 -54.55859375 297.6640625 C-42.68595819 310.03959054 -28.2426022 318.75474112 -13.57421875 327.390625 C4.2305945 337.89212786 4.2305945 337.89212786 11.3125 344.375 C12.03953125 345.03371094 12.7665625 345.69242188 13.515625 346.37109375 C43.03281838 374.49499304 60.51769676 417.30648732 61.57887268 457.90510559 C61.59977211 459.0426252 61.59977211 459.0426252 61.62109375 460.203125 C61.63635605 461.02217819 61.65161835 461.84123138 61.66734314 462.68510437 C61.97629174 483.08280762 60.88796272 501.62694498 55.3125 521.375 C55.06693359 522.26670898 54.82136719 523.15841797 54.56835938 524.07714844 C48.62868791 545.09507679 37.4594488 564.79700202 23.3125 581.375 C22.52101563 582.36371094 21.72953125 583.35242188 20.9140625 584.37109375 C12.59747406 593.97388131 0.81776697 600.35731532 -9.93286133 606.84545898 C-17.76047098 611.61423827 -25.287112 616.7599896 -31.6875 623.375 C-33.6875 625.375 -33.6875 625.375 -35.6875 625.375 C-35.6875 626.035 -35.6875 626.695 -35.6875 627.375 C-36.3475 627.375 -37.0075 627.375 -37.6875 627.375 C-37.95304688 627.97183594 -38.21859375 628.56867187 -38.4921875 629.18359375 C-39.72304775 631.44017087 -40.9221657 632.71861462 -42.8125 634.4375 C-50.48002557 641.89649454 -57.61799756 650.70244703 -58.125 661.6875 C-57.90951964 668.22373766 -56.42116055 674.1676854 -52.109375 679.2265625 C-45.35358384 685.40415532 -39.00678944 687.03018134 -29.97265625 686.78125 C-21.78371143 685.76858619 -16.38652773 681.76619451 -11.31640625 675.47265625 C-10.77886719 674.78042969 -10.24132812 674.08820312 -9.6875 673.375 C4.38022626 656.28047689 23.11178984 642.53682334 45.65234375 639.765625 C76.73531008 636.79344375 108.81659757 645.56213774 133.3125 665.375 C140.88920277 671.85929457 147.89606168 678.72506648 154.3125 686.375 C155.13621094 687.34953125 155.95992187 688.3240625 156.80859375 689.328125 C163.39976922 697.36308177 168.10340428 705.89761177 172.3125 715.375 C172.59609375 716.01228027 172.8796875 716.64956055 173.171875 717.30615234 C177.14653301 726.39208931 180.23814788 735.66462704 182.3125 745.375 C182.46348145 746.08124512 182.61446289 746.78749023 182.77001953 747.51513672 C186.9146419 767.9431622 186.89706413 789.86584827 183.3125 810.375 C183.03792969 812.27765625 183.03792969 812.27765625 182.7578125 814.21875 C178.28387744 843.45472303 162.43453528 873.58233049 140.88671875 893.82421875 C139.21668625 895.46938724 137.83017378 897.22576394 136.375 899.0625 C130.73123731 905.61079351 123.3256176 910.41086279 116.3125 915.375 C115.41789062 916.014375 114.52328125 916.65375 113.6015625 917.3125 C98.23419158 927.65687913 81.25929142 935.03082168 63.3125 939.375 C62.2723877 939.64715332 61.23227539 939.91930664 60.16064453 940.19970703 C2.63668599 954.96970941 -61.07906721 943.93620384 -111.8984375 913.92578125 C-119.6146319 909.25415126 -126.81574769 904.23429978 -133.6875 898.375 C-134.74638369 897.49877543 -135.80634754 896.62385511 -136.8671875 895.75 C-146.24204186 887.98455686 -154.86986505 879.72666143 -162.6875 870.375 C-163.39181152 869.53340332 -163.39181152 869.53340332 -164.11035156 868.67480469 C-213.27007295 809.70131267 -239.69199971 732.39132018 -253.9375 657.875 C-254.1045343 657.00256653 -254.2715686 656.13013306 -254.44366455 655.23126221 C-257.93650476 636.87079499 -260.72348773 618.4541467 -262.75 599.875 C-262.83432281 599.11040466 -262.91864563 598.34580933 -263.00552368 597.55804443 C-264.61914864 582.85562183 -265.87288142 568.145193 -266.6875 553.375 C-266.72920319 552.69026611 -266.77090637 552.00553223 -266.81387329 551.30004883 C-268.00826502 531.42944295 -267.97389305 511.52418516 -268 491.625 C-268.00159245 490.70858734 -268.00318489 489.79217468 -268.00482559 488.84799194 C-268.04838404 459.27474948 -267.16167204 430.06732713 -263.93096924 400.64477539 C-263.57580511 397.3337091 -263.27119797 394.01906385 -262.96484375 390.703125 C-260.57790164 365.9310188 -256.40968909 341.16226183 -251.546875 316.76171875 C-250.83224595 313.1751939 -250.20245645 309.58062259 -249.60229492 305.97338867 C-240.75821446 253.29502997 -222.30024866 200.22386014 -197.91992188 152.77783203 C-197.01328222 151.01017206 -196.11167111 149.23993067 -195.21289062 147.46826172 C-188.90607281 135.04091151 -182.59537812 122.86354321 -174.6875 111.375 C-173.81657968 110.07497416 -172.94684613 108.77415269 -172.078125 107.47265625 C-163.84246189 95.21669883 -155.00081248 83.64510575 -144.94921875 72.8203125 C-142.9970112 70.7096356 -141.11443722 68.56272443 -139.25 66.375 C-131.47644319 57.47273002 -122.96772237 49.67390768 -113.6875 42.375 C-112.77226562 41.60800781 -111.85703125 40.84101563 -110.9140625 40.05078125 C-80.31797072 15.11617102 -39.29460911 0.23314303 0 0 Z " transform="translate(608.6875,315.625)" style="fill: #FCFDFC;"/><path d="M0 0 C34.65 0 69.3 0 105 0 C105.02505615 11.4660498 105.0501123 22.93209961 105.07592773 34.74560547 C105.15693784 71.51311712 105.24258443 108.28061668 105.33111694 145.04811095 C105.34488505 150.76775097 105.35861237 156.48739108 105.37231445 162.20703125 C105.37504276 163.34561664 105.37777106 164.48420202 105.38058204 165.65729 C105.42455006 184.04668749 105.4652203 202.43609085 105.50465261 220.82549857 C105.54524577 239.7217004 105.58942738 258.61789144 105.63687855 277.51407731 C105.66600182 289.15595559 105.69238994 300.79783327 105.71517897 312.43972571 C105.73111629 320.44382448 105.7505671 328.44791013 105.77266841 336.45199423 C105.7852827 341.05662023 105.79645613 345.66123655 105.80341911 350.26587486 C105.82842959 366.12240375 105.85654695 381.97755435 106.37220764 397.82717896 C106.41417335 399.3573691 106.41417335 399.3573691 106.45698684 400.91847217 C106.79540265 409.60069675 108.73369995 416.95846129 112 425 C112.40605469 426.10601563 112.81210938 427.21203125 113.23046875 428.3515625 C115.6677549 434.7090144 118.59717737 439.82722563 123 445 C123.78503906 445.99966797 123.78503906 445.99966797 124.5859375 447.01953125 C135.63919054 460.58960481 152.26825852 466.34162105 169.17497253 468.711586 C179.83948816 469.80035263 190.6904347 469.38799969 201.40274215 469.33711338 C205.24588827 469.32186384 209.0890339 469.32324626 212.9322052 469.32244873 C219.38657463 469.31877477 225.84083656 469.30391011 232.29516602 469.28125 C240.51408595 469.25244866 248.73291932 469.24202694 256.95188427 469.2375679 C264.09549104 469.2335483 271.23907992 469.22105139 278.3826735 469.20722103 C280.64047787 469.20317427 282.89828165 469.20022251 285.15608788 469.19742584 C305.09313952 469.17313991 305.09313952 469.17313991 325.02075195 468.61230469 C325.83169658 468.5822295 326.6426412 468.55215431 327.4781599 468.52116776 C337.02088643 468.04373591 346.89653214 465.72118562 354.0859375 459.0703125 C366.54566382 445.138551 366.58009629 430.06136015 366.48242188 412.34179688 C366.4846109 410.0654324 366.48861244 407.78906905 366.49427795 405.51271057 C366.50280814 400.63246573 366.4991084 395.75244143 366.4858551 390.87220764 C366.46543234 383.14678825 366.47553292 375.42158869 366.4901123 367.69616699 C366.50775678 356.85911115 366.51442557 346.02212624 366.50927734 335.18505859 C366.50879639 334.15598106 366.50879639 334.15598106 366.50830573 333.10611409 C366.50593294 328.23740914 366.50302837 323.36870458 366.5 318.5 C366.49654059 312.93831396 366.49332197 307.37662792 366.49072266 301.81494141 C366.49039715 301.12973708 366.49007163 300.44453276 366.48973626 299.73856467 C366.48478236 288.2853814 366.49568004 276.83228117 366.51729441 265.37911463 C366.53063037 257.70798076 366.52476166 250.03717978 366.50392914 242.36606598 C366.49491444 237.58537215 366.50244294 232.80480537 366.51434135 228.02412224 C366.51646366 225.8171387 366.51180093 223.61013592 366.4996357 221.40318489 C366.38650891 199.64417368 370.96341202 182.51210289 386.45849609 166.45556641 C390.72988166 162.42230687 395.71847344 159.49384552 401 157 C401.75056356 156.58879662 402.50112713 156.17759323 403.27443504 155.75392914 C415.07220383 150.16222635 427.78148906 151.31487023 440.54541016 151.38476562 C443.23883325 151.38126095 445.93218778 151.37579396 448.62559509 151.36795044 C455.15750808 151.35349062 461.68910816 151.36558938 468.22099139 151.38706368 C475.83914364 151.41118183 483.45722584 151.40935274 491.07540779 151.40675777 C504.67338336 151.40307497 518.27121233 151.4238305 531.86914062 151.45800781 C545.04333194 151.49110746 558.2173695 151.50526301 571.39160156 151.49902344 C585.76431835 151.49224965 600.13697092 151.49474669 614.50967824 151.51438284 C615.27062862 151.51542232 616.03157899 151.51646181 616.81558847 151.5175328 C618.34359678 151.51962357 619.87160507 151.52173454 621.39961333 151.52386597 C626.70156066 151.53074205 632.00348814 151.53143415 637.305439 151.52998352 C643.77096438 151.52853943 650.23636494 151.53831449 656.701849 151.56192988 C659.99644665 151.57373722 663.29083722 151.57933457 666.58545876 151.57509232 C670.16537453 151.57136269 673.7447608 151.58617736 677.32461548 151.60559082 C678.35371745 151.60026289 679.38281942 151.59493497 680.44310629 151.58944559 C695.24697544 151.72740689 709.13019703 157.36896853 719.87890625 167.6640625 C734.31361105 183.56084606 739.34337728 202.09555362 739.24291992 223.25830078 C739.24481827 224.53601852 739.24671661 225.81373627 739.24867249 227.13017273 C739.25347243 230.59853502 739.24593016 234.06676639 739.23571944 237.53511286 C739.2268743 241.1741128 739.22869752 244.81310942 739.2290802 248.45211792 C739.22814748 254.54948088 739.21951042 260.64679367 739.20581055 266.74414062 C739.19001859 273.79881737 739.18481507 280.85343953 739.1855461 287.90813267 C739.18622013 295.42832518 739.17929516 302.94849661 739.1700995 310.46868277 C739.16796588 312.63572996 739.16725806 314.80277378 739.16686058 316.96982193 C739.16567428 320.99178927 739.1559828 325.01369132 739.14526367 329.03564453 C739.14571686 330.23971451 739.14617004 331.44378448 739.14663696 332.68434143 C739.14237198 333.77207352 739.13810699 334.8598056 739.13371277 335.98049927 C739.13203692 336.93132952 739.13036108 337.88215977 739.12863445 338.86180305 C739 341 739 341 738 342 C736.11160316 342.1000444 734.2194282 342.12909531 732.3283844 342.13130188 C730.4800576 342.13731415 730.4800576 342.13731415 728.59439087 342.14344788 C727.2160034 342.14297271 725.83761594 342.14243658 724.45922852 342.1418457 C723.01719557 342.14487572 721.57516358 342.14839673 720.13313293 342.15237427 C717.01906286 342.16027935 713.90500432 342.16541438 710.79092598 342.16866493 C705.86073925 342.17456831 700.930625 342.19110498 696.00047302 342.21000671 C694.31287866 342.21634485 692.62528424 342.22267047 690.93768978 342.22898388 C689.66953877 342.2337326 689.66953877 342.2337326 688.37576854 342.23857725 C676.89448712 342.28064064 665.41323803 342.31359562 653.93188477 342.32592773 C646.19353148 342.33432503 638.45535621 342.35688283 630.71709198 342.3952834 C626.62323349 342.41499885 622.52964086 342.42746399 618.43573189 342.42244911 C614.57701921 342.41778057 610.71880863 342.43172726 606.86019707 342.45946121 C605.45020064 342.46633787 604.04015189 342.46653781 602.63015747 342.45926094 C594.20851895 342.42021697 587.55364137 343.17094715 580 347 C578.96488281 347.49242187 577.92976563 347.98484375 576.86328125 348.4921875 C562.09181038 356.49999866 553.19170022 368.16208259 547.9569397 384.19458008 C546.32617872 390.88869696 546.69036034 397.84032217 546.68115234 404.6875 C546.67184365 406.27487188 546.66167358 407.8622389 546.65071106 409.44960022 C546.62350308 413.7403017 546.60828905 418.03097051 546.59528303 422.32173538 C546.57961208 426.8127541 546.55283455 431.30370651 546.5272522 435.79467773 C546.48053445 444.29067685 546.44375651 452.78668853 546.41057932 461.28275013 C546.37230836 470.95872974 546.32291127 480.63464264 546.27259517 490.31056595 C546.16937953 510.20699465 546.0800855 530.10346563 546 550 C497.38706644 550.04582197 448.77413507 550.0810418 400.16118414 550.10213066 C394.41621257 550.10463194 388.67124104 550.1072206 382.92626953 550.10986328 C381.78259505 550.1103879 380.63892056 550.11091252 379.46058927 550.11145304 C360.96554411 550.12014515 342.47051143 550.13590854 323.97547366 550.15430559 C304.98439911 550.17303789 285.99333109 550.18412376 267.00224769 550.18817699 C255.29276544 550.19091515 243.58331849 550.1995496 231.87384711 550.21583293 C223.83383584 550.22644094 215.79384271 550.22959202 207.75382496 550.22700275 C203.12181137 550.22572739 198.48985928 550.2276211 193.85785675 550.23841095 C189.60461059 550.24824537 185.35146648 550.24856989 181.09821533 550.24179779 C179.57165815 550.24096257 178.04509423 550.24341262 176.51855005 550.24976636 C127.6126006 550.44123551 76.50010733 539.00512015 40.625 504 C29.21732625 492.53350649 20.42584935 479.82968252 14 465 C13.68691895 464.28054199 13.37383789 463.56108398 13.05126953 462.81982422 C0.24795876 432.87987528 -0.45439479 401.99642655 -0.34819686 369.92149389 C-0.33508846 364.94366574 -0.33963628 359.96584717 -0.34190369 354.98800659 C-0.34346719 346.38979833 -0.33415541 337.79165902 -0.31719017 329.19346809 C-0.29267825 316.76235267 -0.28498251 304.33127016 -0.2812262 291.90013319 C-0.27468071 271.72531409 -0.25477151 251.55053165 -0.22631836 231.37573242 C-0.19872831 211.79240094 -0.17751902 192.20907945 -0.16479492 172.62573242 C-0.16400675 171.41606786 -0.16321858 170.2064033 -0.16240653 168.96008224 C-0.15849106 162.89078989 -0.15470002 156.82149748 -0.15097082 150.75220501 C-0.11993423 100.50143744 -0.06466338 50.25073776 0 0 Z " transform="translate(1085,152)" style="fill: #0575B1;"/><path d="M0 0 C0.95347775 0.00037972 1.9069555 0.00075944 2.88932651 0.00115067 C3.98510377 -0.00084038 5.08088103 -0.00283143 6.20986366 -0.00488281 C8.03813105 -0.00051355 8.03813105 -0.00051355 9.90333313 0.00394398 C11.82796793 0.00266234 11.82796793 0.00266234 13.79148424 0.00135481 C17.36933021 -0.00089256 20.94714652 0.00313443 24.52498871 0.00813287 C28.37708621 0.01243373 32.2291819 0.01099121 36.08128113 0.0102306 C42.76074953 0.00970513 49.44020819 0.01285431 56.11967415 0.01846844 C65.77717293 0.02658036 75.43466698 0.02919834 85.0921688 0.03045643 C100.75916094 0.03264744 116.42614789 0.03930883 132.0931372 0.04875904 C147.31611871 0.05793191 162.53909881 0.06501335 177.76208252 0.06926686 C178.69973641 0.06952958 179.63739029 0.0697923 180.60345794 0.07006299 C185.30718567 0.07136798 190.01091341 0.0726317 194.71464115 0.07387489 C233.76390584 0.08424901 272.81316474 0.10186864 311.86242431 0.1241985 C311.86204729 0.94950817 311.86167026 1.77481785 311.86128181 2.62513691 C311.85414431 22.76784306 311.8802464 42.91027151 311.94270271 63.05288655 C311.97211727 72.79399896 311.99055183 82.53489448 311.9825415 92.27605397 C311.97558284 100.7729791 311.98983336 109.26956811 312.02886039 117.76641089 C312.04877599 122.25963408 312.05854078 126.75233054 312.04284805 131.24558216 C312.02836878 135.48777703 312.04256469 139.72897281 312.07737678 143.97104031 C312.08524849 145.51558178 312.0832523 147.06021565 312.06981605 148.60471874 C311.9567992 162.81515164 315.08796088 176.28729338 324.86242431 187.1241985 C325.45797119 187.87056568 326.05351806 188.61693287 326.66711181 189.38591725 C334.87521698 199.35761127 346.17344533 204.97163394 358.86242431 207.1241985 C360.9087569 207.22220138 362.9577806 207.27008628 365.00642151 207.28241688 C366.24176132 207.2922057 367.47710113 207.30199452 368.74987549 207.31207997 C370.11071494 207.31798332 371.47155481 207.32379382 372.83239502 207.32952076 C374.2715407 207.33910538 375.71068361 207.34911581 377.14982361 207.35951954 C381.05021175 207.38651139 384.95061193 207.40755185 388.8510415 207.42752153 C392.92966163 207.44941643 397.00824493 207.47678795 401.08683532 207.50357777 C408.80732951 207.55345731 416.52784419 207.59841369 424.2483784 207.64160013 C433.03916155 207.69101304 441.82990774 207.74591612 450.62065512 207.80127972 C468.70121051 207.91502701 486.78180081 208.0218818 504.86242431 208.1241985 C504.9561172 226.02298574 505.02652523 243.92170881 505.069673 261.82068878 C505.09024518 270.13263575 505.11826271 278.4444298 505.16418213 286.75627857 C505.20421449 294.00600926 505.22989591 301.25562914 505.23877829 308.5054673 C505.24396549 312.33960936 505.25604372 316.17343458 505.28534454 320.00747448 C505.31277395 323.62643202 505.32081475 327.24494637 505.31485504 330.863998 C505.31645655 332.804595 505.3378338 334.74514526 505.36010498 336.68561512 C505.30745199 348.0560574 502.50030081 358.39600612 496.79992431 368.2491985 C496.41489746 368.9187859 496.0298706 369.5883733 495.63317627 370.27825123 C487.86107288 383.21625299 476.02269308 392.69334327 461.31164306 396.51872975 C460.50340088 396.71853443 459.69515869 396.91833912 458.86242431 397.1241985 C457.88111258 397.46103185 456.89980085 397.7978652 455.8887524 398.14490563 C450.96792246 399.54548613 446.07393268 399.41053424 440.99195617 399.39835316 C439.90695577 399.40358984 438.82195537 399.40882652 437.70407617 399.41422188 C434.07330907 399.4292071 430.44268309 399.42992673 426.8118872 399.43059498 C424.20630414 399.43821765 421.60072333 399.44664534 418.99514526 399.45581776 C411.91826546 399.4786269 404.84141572 399.48658452 397.76450413 399.4916442 C393.33923296 399.49490713 388.91397042 399.50143335 384.48870414 399.50864559 C372.2188283 399.52820915 359.94896047 399.54461381 347.67906803 399.54752213 C346.50219598 399.54780348 346.50219598 399.54780348 345.30154875 399.54809052 C343.71122144 399.54845676 342.12089413 399.54882045 340.53056682 399.54918163 C339.34651719 399.54945585 339.34651719 399.54945585 338.13854736 399.54973561 C336.95303936 399.55000643 336.95303936 399.55000643 335.7435817 399.55028272 C322.95427087 399.55381987 310.16512889 399.58081452 297.37587655 399.61823349 C284.22222435 399.65640812 271.0686557 399.67568029 257.91494691 399.67598164 C250.53903341 399.67656429 243.16332117 399.68493077 235.78745979 399.7139793 C228.84260963 399.74120574 221.8981624 399.74232047 214.95327896 399.72632366 C212.41375685 399.72451527 209.87421151 399.73114426 207.33473915 399.74714237 C184.57555791 399.88169961 166.89665185 396.60544285 149.40929931 380.82341725 C147.86242431 379.1241985 147.86242431 379.1241985 147.86242431 377.1241985 C147.20242431 377.1241985 146.54242431 377.1241985 145.86242431 377.1241985 C136.83077105 365.39099499 132.52942128 350.23948519 132.61086792 335.621162 C132.60789778 334.70737308 132.60492764 333.79358416 132.6018675 332.85210466 C132.59427406 329.81261046 132.6007025 326.77331217 132.60705322 323.73381764 C132.60430101 321.54497354 132.60061972 319.35613044 132.59608215 317.16728932 C132.58798643 312.4627525 132.58579768 307.75826316 132.58802933 303.05372006 C132.59087095 295.60032126 132.57647708 288.14701661 132.55904907 280.69364125 C132.53587237 270.23031249 132.51674917 259.7669888 132.50402588 249.30364186 C132.50321551 248.64056463 132.50240514 247.97748741 132.50157021 247.29431694 C132.4903693 237.90259493 132.4850718 228.51087884 132.48218308 219.11915105 C132.47835929 206.74077035 132.4615698 194.36250705 132.42647058 181.9841733 C132.40635852 174.5904382 132.40383658 167.19698011 132.41475075 159.80322903 C132.41737639 155.18069334 132.40326354 150.55831555 132.38466972 145.93582112 C132.37939195 143.80996679 132.38076779 141.68408256 132.38970512 139.55824047 C132.65698069 115.50176544 132.65698069 115.50176544 122.89758056 94.16716725 C110.98826725 82.2121368 98.0276771 80.62073654 81.95135254 80.51854664 C79.76025174 80.51688406 77.56915058 80.51565289 75.37804931 80.5148235 C73.10832306 80.49982337 70.83860765 80.48309242 68.56890625 80.46471363 C62.63097357 80.42123393 56.6931881 80.40108404 50.75512451 80.38597828 C44.68142828 80.36633713 38.6078894 80.32437513 32.53429931 80.28435475 C20.64372308 80.20926264 8.75318243 80.15884422 -3.13757569 80.1241985 C-3.16069944 69.84115312 -3.17849094 59.55811388 -3.18938786 49.27504784 C-3.19461662 44.5007157 -3.20171413 39.72640129 -3.21301514 34.95207936 C-3.22384428 30.34853588 -3.22985258 25.7450095 -3.23245293 21.14145428 C-3.23430713 19.38110227 -3.23792765 17.62075123 -3.24330574 15.86040646 C-3.25051654 13.40347572 -3.25156661 10.94661655 -3.25110108 8.48967701 C-3.25469635 7.75456394 -3.25829163 7.01945088 -3.26199585 6.26206166 C-3.24946202 0.18880187 -3.24946202 0.18880187 0 0 Z " transform="translate(1319.137575685978,749.8758015036583)" style="fill: #0F804C;"/><path d="M0 0 C16.46456972 -0.09372892 32.92905198 -0.16411832 49.39382458 -0.20724869 C57.03990319 -0.22781334 64.68581537 -0.25581614 72.33178711 -0.30175781 C79.00140306 -0.34181361 85.67089839 -0.36747705 92.34063131 -0.37635398 C95.86738331 -0.38153731 99.39379043 -0.39358988 102.92043114 -0.42292023 C106.87173972 -0.45551133 110.82272079 -0.45594749 114.77416992 -0.45410156 C115.92432587 -0.46848267 117.07448181 -0.48286377 118.25949097 -0.49768066 C134.58747283 -0.41567918 149.3000891 6.16654878 161 17.375 C175.03484451 32.37705521 179.33193204 51.10559876 179.26069641 71.16854858 C179.26452196 72.33273618 179.26834751 73.49692378 179.27228898 74.69638979 C179.28075529 77.89174601 179.28041112 81.08695308 179.27610838 84.28231287 C179.27362417 87.74253676 179.28267617 91.20273453 179.29014587 94.66294861 C179.30284788 101.42784621 179.30469223 108.19270403 179.30234561 114.95761155 C179.30055733 120.46016536 179.30232299 125.96270717 179.30657005 131.46525955 C179.30716524 132.25056951 179.30776043 133.03587946 179.30837366 133.84498668 C179.3095855 135.44071304 179.31079963 137.03643939 179.31201603 138.63216574 C179.32287413 153.57227723 179.32073722 168.5123661 179.31463119 183.45247884 C179.30946292 197.09635715 179.32071817 210.74016405 179.33972941 224.38402824 C179.35913792 238.42149653 179.36735857 252.45893109 179.36360615 266.49641287 C179.36169876 274.36620729 179.36413652 282.23594092 179.37832069 290.10572433 C179.39027392 296.805025 179.39159539 303.50422747 179.37953053 310.20352958 C179.3736695 313.61596022 179.37246462 317.0282116 179.38453293 320.44062996 C179.44825809 342.94117598 178.50720534 363.7498089 162 381 C148.72028404 393.58521418 133.75751568 399.49224757 115.5349884 399.39440918 C114.44642144 399.40050028 113.35785448 399.40659139 112.23630065 399.41286707 C108.62332648 399.42938924 105.01070892 399.4247366 101.39770508 399.41992188 C98.79300575 399.42726852 96.18830968 399.43585648 93.58361816 399.44558716 C87.26287756 399.46655229 80.94222884 399.47118712 74.62145755 399.46939927 C69.47790449 399.46808695 64.33437986 399.47191967 59.19083214 399.47932434 C57.70406634 399.48142375 56.21730054 399.48352135 54.73053473 399.48561716 C53.99030807 399.48666069 53.2500814 399.48770422 52.48742362 399.48877937 C38.51435232 399.50764632 24.54133361 399.50664266 10.56825485 399.49981004 C-2.18127034 399.49423916 -14.93059431 399.51504687 -27.68007251 399.54817051 C-40.80564579 399.58200358 -53.93112294 399.59706378 -67.05674058 399.59245348 C-74.41192178 399.59021822 -81.76691711 399.59531244 -89.12206078 399.62034607 C-96.04401381 399.64370673 -102.96554357 399.64066022 -109.88750458 399.62041855 C-112.41693004 399.61702424 -114.94638405 399.62202874 -117.47577095 399.63640213 C-140.66721996 399.75901604 -158.25471615 396.80489539 -175.71875 380.36328125 C-184.99621617 370.75220756 -192.1323202 356.72790632 -192.12025452 343.16607666 C-192.12162918 341.97418228 -192.12300385 340.7822879 -192.12442017 339.55427551 C-192.12082489 338.25020248 -192.11722961 336.94612946 -192.11352539 335.60253906 C-192.11324326 334.21280418 -192.11340176 332.82306915 -192.1139679 331.43333435 C-192.11425486 327.66301724 -192.10837442 323.89273194 -192.10139394 320.12242222 C-192.09514362 316.18128686 -192.09455527 312.24015078 -192.09336853 308.29901123 C-192.09026017 300.8369931 -192.08205344 293.37498961 -192.07201904 285.91297793 C-192.06084254 277.417281 -192.05534358 268.92158337 -192.05032361 260.42588091 C-192.03987043 242.9505788 -192.02228056 225.47529095 -192 208 C-191.27923153 207.99668985 -190.55846306 207.99337971 -189.81585312 207.98996925 C-172.23658063 207.90856814 -154.65739689 207.81642038 -137.07824326 207.71247292 C-128.57691985 207.66245984 -120.07560554 207.61601612 -111.57421875 207.578125 C-104.16000838 207.54507026 -96.74587107 207.50516573 -89.33174157 207.45720994 C-85.4100252 207.43207824 -81.48835644 207.4102585 -77.56658173 207.39665604 C-73.86640157 207.38371356 -70.16638586 207.36153145 -66.46629715 207.33261681 C-64.47907961 207.31939087 -62.49180586 207.31564326 -60.50454712 207.31230164 C-43.84077901 207.15872714 -29.36446774 204.14688332 -17.0234375 192.21875 C-7.74123853 182.04058588 -0.91717854 170.33315779 -0.84178162 156.33087158 C-0.83684364 155.66183485 -0.83190566 154.99279811 -0.82681805 154.30348754 C-0.811469 152.06333009 -0.80308949 149.82320125 -0.79467773 147.58300781 C-0.78509717 145.97652434 -0.77508698 144.37004339 -0.76467896 142.76356506 C-0.73764316 138.40238684 -0.71662641 134.04119781 -0.69667697 129.67998219 C-0.67480926 125.12222639 -0.6474244 120.56450386 -0.62062073 116.0067749 C-0.57070448 107.37605508 -0.52576167 98.74531679 -0.48259836 90.11456084 C-0.43321688 80.28875642 -0.37830212 70.46298537 -0.32291877 60.63721323 C-0.20911511 40.42483991 -0.10227253 20.21243473 0 0 Z " transform="translate(2064,750)" style="fill: #0E804B;"/><path d="M0 0 C0.96387323 -0.00630794 1.92774647 -0.01261588 2.92082798 -0.01911497 C3.98217705 -0.02097697 5.04352612 -0.02283896 6.13703728 -0.02475739 C7.26283349 -0.03055077 8.3886297 -0.03634416 9.54854095 -0.0423131 C13.34137171 -0.06042808 17.13418752 -0.07126074 20.92704582 -0.08200836 C22.94813045 -0.08995055 24.96921066 -0.09866758 26.99029161 -0.10749274 C36.60834226 -0.14941433 46.22641782 -0.17662202 55.84452629 -0.20114899 C56.60428786 -0.20312389 57.36404943 -0.20509879 58.14683408 -0.20713353 C73.24534094 -0.24632147 88.34385618 -0.28000733 103.44239807 -0.30221558 C106.76280161 -0.3071846 110.08320503 -0.31222894 113.40360832 -0.31735992 C114.22884345 -0.3186306 115.05407857 -0.31990127 115.90432082 -0.32121044 C129.24614666 -0.34252989 142.58772475 -0.39148233 155.92942621 -0.45160407 C169.64230114 -0.51288573 183.35504878 -0.54742698 197.06805885 -0.55668879 C204.76106838 -0.56258086 212.45365921 -0.58014789 220.14653206 -0.62807465 C226.70478728 -0.66889541 233.26255543 -0.68547071 239.82093193 -0.67142183 C243.16132831 -0.66500069 246.49985972 -0.67334935 249.84023094 -0.70529556 C267.85002391 -0.86834414 284.48594024 0.1982917 298.33671379 13.14260101 C299.20296379 13.94697601 300.06921379 14.75135101 300.96171379 15.58010101 C305.79144389 20.79112559 310.1210707 25.73822397 313.33671379 32.14260101 C313.67573723 32.79744476 314.01476067 33.45228851 314.36405754 34.12697601 C319.36281363 44.46402633 320.78795245 55.26705946 320.71766472 66.6346817 C320.72234469 67.82155262 320.72702466 69.00842354 320.73184645 70.23126024 C320.74165583 73.48529508 320.7382431 76.73898697 320.7288878 79.99301255 C320.72204667 83.51794462 320.73260334 87.04283343 320.74082756 90.56775665 C320.75411313 97.45686401 320.7513105 104.34587289 320.74258964 111.23498399 C320.73579355 116.83717246 320.73490466 122.43933347 320.73816109 128.04152489 C320.73862079 128.8411536 320.73908049 129.64078232 320.73955411 130.46464221 C320.74051336 132.0894435 320.741486 133.71424478 320.74247189 135.33904605 C320.75101047 150.54665232 320.74121547 165.75420418 320.72507079 180.96180152 C320.71166642 193.99125213 320.71399965 207.02062255 320.72782707 220.05007172 C320.74390557 235.2076267 320.75018934 250.36513411 320.74099028 265.52269644 C320.7400347 267.14096192 320.73909159 268.75922741 320.73816109 270.3774929 C320.73769826 271.1735615 320.73723543 271.96963009 320.73675858 272.78982197 C320.73417569 278.38135003 320.73852447 283.97284775 320.74559975 289.56437111 C320.75404011 296.38411766 320.75168145 303.20376071 320.73575751 310.0234955 C320.72790914 313.4984626 320.72472403 316.97325754 320.73470497 320.44822311 C320.74293893 324.22482016 320.73257577 328.00093725 320.71766472 331.77750397 C320.72435688 332.86205732 320.73104905 333.94661067 320.73794401 335.06402928 C320.65972756 345.32253688 318.51032786 354.98361233 313.83671379 364.14260101 C313.49559563 364.81412201 313.15447746 365.48564301 312.80302238 366.17751312 C305.65342305 379.5445006 293.67845226 390.0978222 279.33671379 395.14260101 C270.60624252 397.64305792 262.44072369 398.5702099 253.38627434 398.48317719 C252.16517967 398.48361526 250.94408501 398.48405334 249.68598747 398.4845047 C246.38298548 398.48279022 243.08038019 398.46789328 239.77745605 398.44678283 C236.30884874 398.42784745 232.84023114 398.42625246 229.37158012 398.4227066 C222.82352748 398.41343509 216.27562766 398.38888873 209.72764188 398.35865813 C202.26438437 398.32496035 194.80111902 398.30858973 187.3378042 398.29357183 C172.00401934 398.26233389 156.67038638 398.20967027 141.33671379 398.14260101 C141.33432544 397.33421909 141.33193708 396.52583717 141.32947636 395.69295883 C141.27023375 375.98564469 141.19462463 356.2784519 141.10099888 336.57126999 C141.05611239 327.04085906 141.01668136 317.5104849 140.99027824 307.98000336 C140.96724015 299.66923317 140.93377759 291.35858005 140.88801223 283.04790282 C140.86415812 278.65108894 140.84537832 274.25439045 140.83909988 269.85751343 C140.83301347 265.71078168 140.81288672 261.56434486 140.78243828 257.4177227 C140.77371465 255.90375511 140.76992356 254.38974889 140.77170563 252.87575722 C140.78658234 234.38899115 136.09675533 218.6522428 123.89530754 204.46681976 C119.97278425 200.66719538 115.15305049 198.30331049 110.33671379 195.83010101 C109.66003654 195.47995941 108.9833593 195.12981781 108.28617668 194.76906586 C107.62222893 194.44244965 106.95828117 194.11583344 106.27421379 193.77931976 C105.68511223 193.48758881 105.09601067 193.19585785 104.48905754 192.89528656 C99.49796229 191.14987519 94.19501162 191.01599299 88.95220757 190.98438263 C87.71411842 190.97459381 86.47602928 190.96480499 85.20042229 190.95471954 C83.84684601 190.948817 82.49326933 190.94300645 81.13969231 190.93727875 C79.70025166 190.9276884 78.26081375 190.91767766 76.82137871 190.90727997 C72.92937303 190.88035009 69.03735537 190.85927637 65.14530873 190.83927798 C61.07203911 190.81734452 56.99880591 190.78999199 52.92556572 190.76322174 C45.21930433 190.71339405 37.51302261 190.66841859 29.80672163 190.62519938 C21.03040236 190.57574196 12.25411964 190.52085548 3.47783577 190.46551979 C-14.56917091 190.35185217 -32.61621213 190.24498024 -50.66328621 190.14260101 C-50.78047428 172.01761094 -50.86844707 153.89272021 -50.92234707 135.76743221 C-50.9480473 127.35012274 -50.98303967 118.93304968 -51.04048347 110.51589203 C-51.09057083 103.17311798 -51.12263656 95.83051528 -51.13372868 88.48757511 C-51.14020499 84.60522639 -51.15525127 80.72336753 -51.19193649 76.84117699 C-51.22629855 73.17454524 -51.23625996 69.50859725 -51.22882462 65.84181976 C-51.23082032 63.88010603 -51.25750229 61.91846388 -51.28538704 59.95694733 C-51.18256378 41.90027833 -43.40544801 26.76081183 -30.66328621 14.14260101 C-23.19985251 7.16014416 -10.30731843 0.04219574 0 0 Z " transform="translate(1922.6632862091064,303.8573989868164)" style="fill: #0575B1;"/><path d="M0 0 C34.65 0 69.3 0 105 0 C105.02505615 11.4660498 105.0501123 22.93209961 105.07592773 34.74560547 C105.15693784 71.51311712 105.24258443 108.28061668 105.33111694 145.04811095 C105.34488505 150.76775097 105.35861237 156.48739108 105.37231445 162.20703125 C105.37504276 163.34561664 105.37777106 164.48420202 105.38058204 165.65729 C105.42455006 184.04668749 105.4652203 202.43609085 105.50465261 220.82549857 C105.54524577 239.7217004 105.58942738 258.61789144 105.63687855 277.51407731 C105.66600182 289.15595559 105.69238994 300.79783327 105.71517897 312.43972571 C105.73111629 320.44382448 105.7505671 328.44791013 105.77266841 336.45199423 C105.7852827 341.05662023 105.79645613 345.66123655 105.80341911 350.26587486 C105.82842959 366.12240375 105.85654695 381.97755435 106.37220764 397.82717896 C106.41417335 399.3573691 106.41417335 399.3573691 106.45698684 400.91847217 C106.79540265 409.60069675 108.73369995 416.95846129 112 425 C112.40605469 426.10601563 112.81210938 427.21203125 113.23046875 428.3515625 C115.6677549 434.7090144 118.59717737 439.82722563 123 445 C123.78503906 445.99966797 123.78503906 445.99966797 124.5859375 447.01953125 C135.64241175 460.5935595 152.31953087 466.38693239 169.24530029 468.71868896 C180.25407659 469.8429096 191.4491926 469.59375139 202.5 469.6875 C216.6075 469.8421875 216.6075 469.8421875 231 470 C231 496.07 231 522.14 231 549 C227.73231476 550.08922841 225.32601941 550.13346835 221.88647461 550.14526367 C219.99190773 550.15483345 219.99190773 550.15483345 218.05906677 550.16459656 C216.67349282 550.16612752 215.28791836 550.16724026 213.90234375 550.16796875 C212.47001615 550.17118666 211.03768887 550.17455113 209.60536194 550.17805481 C206.59163658 550.18405119 203.57793989 550.18589475 200.56420898 550.18530273 C197.50653072 550.18522216 194.44900443 550.19204961 191.39135742 550.20581055 C159.41046773 550.34752825 159.41046773 550.34752825 144 548 C142.71681885 547.82831299 141.4336377 547.65662598 140.11157227 547.47973633 C95.70143924 541.43779092 55.65539979 525.78043114 27.6875 489.1875 C22.0707686 481.59850206 17.74775928 473.64914151 14 465 C13.68691895 464.28054199 13.37383789 463.56108398 13.05126953 462.81982422 C0.24795876 432.87987528 -0.45439479 401.99642655 -0.34819686 369.92149389 C-0.33508846 364.94366574 -0.33963628 359.96584717 -0.34190369 354.98800659 C-0.34346719 346.38979833 -0.33415541 337.79165902 -0.31719017 329.19346809 C-0.29267825 316.76235267 -0.28498251 304.33127016 -0.2812262 291.90013319 C-0.27468071 271.72531409 -0.25477151 251.55053165 -0.22631836 231.37573242 C-0.19872831 211.79240094 -0.17751902 192.20907945 -0.16479492 172.62573242 C-0.16400675 171.41606786 -0.16321858 170.2064033 -0.16240653 168.96008224 C-0.15849106 162.89078989 -0.15470002 156.82149748 -0.15097082 150.75220501 C-0.11993423 100.50143744 -0.06466338 50.25073776 0 0 Z " transform="translate(1085,152)" style="fill: #11834D;"/><path d="M0 0 C3.76499112 1.50599645 6.78583093 2.95197144 10.2109375 5.01171875 C11.20101807 5.60146484 12.19109863 6.19121094 13.21118164 6.79882812 C14.77727173 7.7337207 14.77727173 7.7337207 16.375 8.6875 C25.40310468 14.00967138 34.33803633 18.93296182 44 23 C44.60569824 23.2568457 45.21139648 23.51369141 45.83544922 23.77832031 C55.07328534 27.67121982 64.46669977 30.91050455 74 34 C75.62545958 34.56117057 77.25053722 35.12345042 78.875 35.6875 C85.79247538 37.97608531 92.56664997 39.19470793 99.8359375 39.65625 C102 40 102 40 105 42 C105.29731518 45.10951203 105.39616835 48.02006591 105.36914349 51.13237953 C105.37433579 52.576868 105.37433579 52.576868 105.37963298 54.05053806 C105.38764613 57.31449382 105.37405518 60.57801574 105.36076355 63.84194946 C105.36207036 66.19068804 105.36469449 68.53942621 105.36853105 70.88816202 C105.37456394 76.68993203 105.36656012 82.4915671 105.35280902 88.2933212 C105.337135 95.23890287 105.33883917 102.18445162 105.34124239 109.13004665 C105.34518933 121.94936443 105.33514005 134.76863591 105.31719017 147.58794022 C105.2994559 160.28573459 105.28789573 172.9835097 105.28463173 185.68131638 C105.28442551 186.47001021 105.28421929 187.25870405 105.28400682 188.0712977 C105.28299186 192.07646533 105.2820877 196.08163296 105.2812262 200.08680062 C105.27492032 228.47584897 105.25469531 256.86487211 105.22631836 285.25390625 C105.19877756 312.83821478 105.17752061 340.42251642 105.16479492 368.00683594 C105.16440034 368.8566907 105.16400576 369.70654546 105.16359923 370.5821534 C105.15964376 379.11652866 105.15581631 387.65090398 105.15208265 396.18527935 C105.14447345 413.57171126 105.13600969 430.95814272 105.12702942 448.34457397 C105.12641161 449.5437469 105.12641161 449.5437469 105.12578133 450.76714554 C105.11310881 475.27751614 105.0968133 499.78788247 105.07695007 524.29824829 C105.0763874 524.99430014 105.07582473 525.69035199 105.075245 526.40749632 C105.05239586 554.6049995 105.02571634 582.80249932 105 611 C70.35 611 35.7 611 0 611 C0 409.37 0 207.74 0 0 Z " transform="translate(1085,812)" style="fill: #0F814C;"/><path d="M0 0 C0.79422363 0.00942627 1.58844727 0.01885254 2.40673828 0.02856445 C8.98479365 0.19639246 14.95086486 1.22711321 21.1875 3.375 C22.25355469 3.72691406 23.31960938 4.07882812 24.41796875 4.44140625 C36.52181308 8.74089609 47.63802216 15.18530157 55.125 25.8125 C55.77795044 26.73784546 55.77795044 26.73784546 56.4440918 27.68188477 C60.50181587 33.58711375 63.56593701 39.70264842 66.1875 46.375 C66.61546875 47.45394531 67.0434375 48.53289063 67.484375 49.64453125 C70.32661196 57.4606829 72.16347011 65.36037348 73.8125 73.5 C74.10362671 74.93617676 74.10362671 74.93617676 74.40063477 76.40136719 C74.7945561 78.44060729 75.16692601 80.4840969 75.52069092 82.53068542 C75.85434946 84.45430707 76.18812267 86.37819394 76.56170559 88.2944622 C80.05169185 106.33588493 79.58078255 124.53499377 79.49168181 142.82257295 C79.47268833 147.39087185 79.47114699 151.95917929 79.46760559 156.5275116 C79.45835073 165.14357299 79.43382764 173.75951763 79.40355712 182.37552804 C79.36980651 192.19926984 79.35347563 202.02301778 79.33847082 211.84680331 C79.30727074 232.02293357 79.25464061 252.19895937 79.1875 272.375 C78.5275 272.705 77.8675 273.035 77.1875 273.375 C77.02668945 272.67640869 76.86587891 271.97781738 76.70019531 271.25805664 C75.39333287 265.58271285 74.08346361 259.90808645 72.76953125 254.234375 C71.856726 250.2895017 70.95285484 246.34324286 70.07421875 242.390625 C68.28573905 234.4198352 66.08840857 226.72314486 63.41015625 219.0078125 C62.19085286 215.38496218 61.13973277 211.74737274 60.125 208.0625 C58.7558027 203.16308314 57.14299334 198.52113418 55.171875 193.8359375 C54.12300475 191.21376188 53.2793712 188.57046479 52.4375 185.875 C49.93611607 178.23405378 46.56336572 171.01039187 43.234375 163.70410156 C42.23348478 161.47730756 41.26674267 159.23930768 40.3125 156.9921875 C28.2250679 128.69191986 12.00902725 102.6116038 -7.64453125 78.984375 C-9.19987057 77.11236299 -10.7368751 75.22505969 -12.26171875 73.328125 C-13.06222656 72.33296875 -13.86273437 71.3378125 -14.6875 70.3125 C-15.40679688 69.41402344 -16.12609375 68.51554688 -16.8671875 67.58984375 C-18.8002648 65.19602651 -18.8002648 65.19602651 -21.8125 63.375 C-21.8125 62.715 -21.8125 62.055 -21.8125 61.375 C-22.410625 61.10816406 -23.00875 60.84132813 -23.625 60.56640625 C-25.86065067 59.34877508 -27.11271589 58.18491843 -28.8125 56.3125 C-31.9825788 53.06694313 -35.36474363 50.16457402 -38.9375 47.375 C-39.93007813 46.59125 -40.92265625 45.8075 -41.9453125 45 C-44.63303747 43.14705859 -44.63303747 43.14705859 -47.359375 43.4609375 C-59.55286858 48.004373 -70.54031513 56.37838397 -81.0625 63.875 C-82.19764038 64.67562866 -82.19764038 64.67562866 -83.35571289 65.49243164 C-87.72561896 68.64108746 -91.58499689 71.96791398 -95.32470703 75.84375 C-96.99726669 77.56516355 -98.77133255 79.10189627 -100.625 80.625 C-108.6822016 87.59339057 -115.39909386 95.93595583 -122 104.2578125 C-123.8125 106.375 -123.8125 106.375 -125.8125 107.375 C-127.82446289 106.96948242 -127.82446289 106.96948242 -130.28515625 106.23046875 C-131.18556641 105.96556641 -132.08597656 105.70066406 -133.01367188 105.42773438 C-133.95791016 105.14220703 -134.90214844 104.85667969 -135.875 104.5625 C-142.48776204 102.5875008 -149.05602359 100.79268441 -155.8125 99.375 C-146.93410767 68.81369975 -107.36356471 40.65893508 -81.25 25.125 C-80.60272949 24.73707275 -79.95545898 24.34914551 -79.28857422 23.94946289 C-68.62360662 17.74116301 -57.34435476 13.25521394 -45.66650391 9.38745117 C-43.57335361 8.69111073 -41.48802792 7.97420724 -39.40234375 7.25585938 C-26.70421853 2.96433708 -13.49357603 -0.26234982 0 0 Z " transform="translate(852.8125,807.625)" style="fill: #F5FBF8;"/><path d="M0 0 C2.07208142 1.76759618 3.50710778 3.40134858 4.984375 5.68359375 C5.41492188 6.328125 5.84546875 6.97265625 6.2890625 7.63671875 C7.421875 9.49609375 7.421875 9.49609375 8.984375 12.68359375 C9.314375 13.34359375 9.644375 14.00359375 9.984375 14.68359375 C10.96409515 22.52135496 10.10361443 28.07536858 5.62890625 34.625 C-0.57644416 42.39274267 -8.28535627 44.06507428 -17.640625 45.37109375 C-38.10188866 48.63157459 -58.99443407 57.4616615 -74.171875 71.94921875 C-76.49088267 74.13065817 -78.96325031 76.07490238 -81.453125 78.05859375 C-90.83974124 85.74090003 -98.32746929 94.30707675 -105.64697266 103.90478516 C-106.95238144 105.60139742 -108.28105596 107.27598215 -109.62109375 108.9453125 C-119.46601912 121.28418448 -126.74328923 134.76572852 -133.85498047 148.82763672 C-138.34600526 157.62812465 -142.62052076 163.79152039 -152.015625 167.68359375 C-159.19517092 169.00933565 -164.97526004 168.05432212 -171.109375 164.109375 C-175.54020632 160.79533108 -178.31236646 157.9622269 -180.015625 152.68359375 C-181.3918631 141.78330084 -179.89166041 134.19230095 -174.21386719 124.7109375 C-172.86961097 122.436548 -171.60196748 120.12740875 -170.3359375 117.80859375 C-161.57505801 101.90878138 -151.78663656 86.54229415 -140.015625 72.68359375 C-139.11690071 71.60049832 -138.21848684 70.51714528 -137.3203125 69.43359375 C-127.24570935 57.37885611 -116.50736446 46.26427888 -104.015625 36.68359375 C-103.20351563 36.05453125 -102.39140625 35.42546875 -101.5546875 34.77734375 C-95.7112934 30.39030325 -89.61185864 26.42090637 -83.453125 22.49609375 C-82.67388672 21.99682373 -81.89464844 21.49755371 -81.09179688 20.9831543 C-67.73279049 12.5693878 -53.35456155 6.62973925 -38.13671875 2.54296875 C-36.0487916 1.96807016 -33.97688129 1.3316553 -31.92578125 0.63671875 C-22.71769931 -2.37908258 -9.03474005 -3.9439215 0 0 Z " transform="translate(621.015625,362.31640625)" style="fill: #0D8046;"/><path d="M0 0 C0.66 0 1.32 0 2 0 C2 33.99 2 67.98 2 103 C0.35 102.34 -1.3 101.68 -3 101 C-13.21349698 96.96532286 -23.33059909 93.61971897 -34 91 C-35.25683594 90.65710938 -36.51367188 90.31421875 -37.80859375 89.9609375 C-42.51708229 88.79031256 -47.23638239 88.29852711 -52.0625 87.875 C-53.00770508 87.7915332 -53.95291016 87.70806641 -54.92675781 87.62207031 C-62.03447534 87.0490559 -69.1200384 86.78851825 -76.25 86.75 C-77.64037476 86.73622314 -77.64037476 86.73622314 -79.05883789 86.72216797 C-84.47191151 86.74657977 -89.44363 87.34941514 -94.7265625 88.51855469 C-97.7573631 89.1603866 -100.79387899 89.44551275 -103.875 89.75 C-126.65540995 92.72036439 -149.89845003 102.11788768 -170 113 C-170.79148437 113.4218457 -171.58296875 113.84369141 -172.3984375 114.27832031 C-190.77401236 122.43656016 -190.77401236 122.43656016 -205 135 C-205.66 135 -206.32 135 -207 135 C-207.02578125 133.68773437 -207.0515625 132.37546875 -207.078125 131.0234375 C-207.39865657 119.38028731 -208.3387282 107.92297928 -209.875 96.375 C-210.03645508 95.14442871 -210.19791016 93.91385742 -210.36425781 92.64599609 C-211.3437652 85.59068996 -212.66157624 78.73079765 -214.41845703 71.82666016 C-214.97420445 69.12538242 -215.11020306 66.74751971 -215 64 C-210.52179133 64.55210792 -206.46724885 65.40461407 -202.1875 66.8125 C-173.02210285 75.17610653 -141.73315499 75.23369028 -112 70 C-110.73027344 69.79503906 -109.46054687 69.59007812 -108.15234375 69.37890625 C-98.01717937 67.50547173 -88.52919143 63.83039797 -79 60 C-78.19788086 59.68321289 -77.39576172 59.36642578 -76.56933594 59.04003906 C-54.31834495 50.12707656 -34.4696559 36.31236008 -17 20 C-16.22398437 19.278125 -15.44796875 18.55625 -14.6484375 17.8125 C-9.62161655 12.97569633 -5.54792827 7.86149436 -1.62890625 2.08984375 C-0.82259766 1.05537109 -0.82259766 1.05537109 0 0 Z " transform="translate(929,659)" style="fill: #F5FBF8;"/><path d="M0 0 C6.20411263 3.3866929 10.02395027 8.58238786 12.8125 15 C13.96336648 23.54002411 11.74924755 31.57667792 9.5 39.75 C9.19126953 40.92949219 8.88253906 42.10898437 8.56445312 43.32421875 C5.40295651 55.15819977 2.03312123 63.52279337 -9.015625 70.0859375 C-13.94235682 72.15941816 -19.70273675 71.86695789 -24.6953125 70.125 C-30.86105469 66.94807521 -35.04215758 62.60807588 -38.5625 56.6875 C-41.01861774 46.12619374 -38.26920179 33.83319069 -34.1875 24 C-33.94 22.80375 -33.6925 21.6075 -33.4375 20.375 C-31.53672185 12.71384836 -28.12872103 5.86612044 -21.5 1.375 C-14.34642 -2.89985092 -7.64418513 -3.44103802 0 0 Z " transform="translate(444.1875,556)" style="fill: #108248;"/></svg>